<svg width="30px" height="27px" viewBox="0 0 30 27" version="1.1" xmlns="http://www.w3.org/2000/svg" xmlns:xlink="http://www.w3.org/1999/xlink">
    <!-- Generator: sketchtool 41.2 (35397) - http://www.bohemiancoding.com/sketch -->
    <title>EBCD9685-E7A2-4F6B-9494-50FD6EFB7955</title>
    <desc>Created with sketchtool.</desc>
    <defs>
        <polygon id="path-1" points="14.925725 0.311111111 0.093 0.311111111 0.093 26.446 29.75845 26.446 29.75845 0.311111111 14.925725 0.311111111"></polygon>
    </defs>
    <g id="Page-1" stroke="none" stroke-width="1" fill="none" fill-rule="evenodd">
        <g id="index" transform="translate(-420.000000, -259.000000)">
            <g id="certificate-of-education-outlined-symbol" transform="translate(420.000000, 259.000000)">
                <polygon id="Fill-1" fill="#E18E42" points="18.6 15.2475556 26.04155 15.2475556 26.04155 14.0015556 18.6 14.0015556"></polygon>
                <g id="Group-5">
                    <mask id="mask-2" fill="white">
                        <use xlink:href="#path-1"></use>
                    </mask>
                    <g id="Clip-3"></g>
                    <polygon id="Fill-2" fill="#E18E42" mask="url(#mask-2)" points="14.8831 11.5095556 26.04155 11.5095556 26.04155 10.2635556 14.8831 10.2635556"></polygon>
                    <path d="M27.2831,0.311111111 L2.4831,0.311111111 C1.11445,0.311111111 0,1.42955556 0,2.80311111 L0,18.9777778 C0,20.3451111 1.11445,21.4697778 2.4831,21.4697778 L4.95845,21.4697778 L4.95845,26.446 L8.05845,23.3348889 L11.15845,26.446 L11.15845,21.4697778 L27.2831,21.4697778 C28.644,21.4697778 29.75845,20.3451111 29.75845,18.9777778 L29.75845,2.80311111 C29.75845,1.42955556 28.644,0.311111111 27.2831,0.311111111 Z M9.9169,23.4562222 L8.05845,21.5911111 L6.2,23.4562222 L6.2,18.6075556 C6.8169,18.8564444 7.44155,18.9777778 8.05845,18.9777778 C8.6831,18.9777778 9.3,18.8564444 9.9169,18.6075556 L9.9169,23.4562222 Z M8.05845,17.7317778 C6.3209,17.7317778 4.95845,16.3644444 4.95845,14.6206667 C4.95845,12.8768889 6.3209,11.5095556 8.05845,11.5095556 C9.796,11.5095556 11.15845,12.8768889 11.15845,14.6206667 C11.15845,16.3644444 9.796,17.7317778 8.05845,17.7317778 Z M28.5169,18.9777778 C28.5169,19.7244444 28.0209,20.2237778 27.2831,20.2237778 L11.15845,20.2237778 L11.15845,17.6104444 C11.904,16.8637778 12.4,15.7453333 12.4,14.6206667 C12.4,12.2577778 10.41445,10.2635556 8.05845,10.2635556 C5.704,10.2635556 3.7169,12.2577778 3.7169,14.6206667 C3.7169,15.8666667 4.21445,16.8637778 4.95845,17.6104444 L4.95845,20.2237778 L2.4831,20.2237778 C1.73755,20.2237778 1.24155,19.5968889 1.24155,18.9777778 L1.24155,2.80311111 C1.24155,2.05488889 1.73755,1.55711111 2.4831,1.55711111 L27.2831,1.55711111 C28.0209,1.55711111 28.5169,2.17622222 28.5169,2.80311111 L28.5169,18.9777778 Z" id="Fill-4" fill="#E18E42" mask="url(#mask-2)"></path>
                </g>
                <polygon id="Fill-6" fill="#E18E42" points="3.7169 7.77933333 26.04 7.77933333 26.04 6.53333333 3.7169 6.53333333"></polygon>
            </g>
        </g>
    </g>
</svg>