<svg width="12px" height="11px" viewBox="0 0 12 11" version="1.1" xmlns="http://www.w3.org/2000/svg" xmlns:xlink="http://www.w3.org/1999/xlink">
    <!-- Generator: sketchtool 41.2 (35397) - http://www.bohemiancoding.com/sketch -->
    <title>A7227383-3244-471C-B1BE-5C7378F132F2</title>
    <desc>Created with sketchtool.</desc>
    <defs></defs>
    <g id="Page-1" stroke="none" stroke-width="1" fill="none" fill-rule="evenodd">
        <g id="index" transform="translate(-788.000000, -327.000000)" fill="#E18E42">
            <g id="Group-13" transform="translate(774.000000, 312.000000)">
                <g id="Group-12" transform="translate(9.000000, 11.000000)">
                    <g id="download-(1)" transform="translate(5.000000, 4.000000)">
                        <path d="M11.6549602,5.12724022 C11.4639788,5.12724022 11.3111618,5.27812879 11.3111618,5.46670022 L11.3111618,8.55418022 C11.3111618,9.39392022 10.6186313,10.0754174 9.77064191,10.0754174 L2.22811671,10.0754174 C1.37764456,10.0754174 0.687596817,9.39146879 0.687596817,8.55418022 L0.687596817,5.41638308 C0.687596817,5.22781165 0.534779841,5.07692308 0.343798408,5.07692308 C0.152816976,5.07692308 0,5.22781165 0,5.41638308 L0,8.55418022 C0,9.76861165 1.00077454,10.7541802 2.22811671,10.7541802 L9.77064191,10.7541802 C11.0005942,10.7541802 11.9987586,9.76616022 11.9987586,8.55418022 L11.9987586,5.46670022 C11.9987586,5.28058022 11.8459416,5.12724022 11.6549602,5.12724022 Z" id="Fill-1"></path>
                        <path d="M5.71708602,8.28463429 C5.78335657,8.34994286 5.87251307,8.38517429 5.95902766,8.38517429 C6.04557408,8.38517429 6.13473058,8.35252 6.20087382,8.28463429 L8.38573323,6.12734571 C8.5207571,5.99402571 8.5207571,5.78040571 8.38573323,5.64708571 C8.25080485,5.51386 8.03435923,5.51386 7.89943085,5.64708571 L6.30282607,7.22612 L6.30282607,0.33946 C6.30282607,0.150888571 6.15000909,0 5.95902766,0 C5.76804623,0 5.61526108,0.150888571 5.61526108,0.33946 L5.61526108,7.22612 L4.01614172,5.64708571 C3.88111785,5.51386 3.66464039,5.51386 3.52974384,5.64708571 C3.39484729,5.78040571 3.39484729,5.99402571 3.52974384,6.12734571 L5.71708602,8.28463429 Z" id="Fill-2"></path>
                    </g>
                </g>
            </g>
        </g>
    </g>
</svg>